<svg id="Layer_1" data-name="Layer 1" xmlns="http://www.w3.org/2000/svg" viewBox="0 0 512 512"><defs><style>.cls-1{fill:#1f65a6;}.cls-2{fill:#328ff8;}.cls-3{font-size:147.915px;fill:#2b2d46;font-family:AvenirNextRoundedPro-Bold, Avenir Next Rounded Pro;font-weight:700;}</style></defs><title>ikat512</title><g id="Layer_2" data-name="Layer 2"><g id="Layer_1-2" data-name="Layer 1-2"><path class="cls-1" d="M35.5975,284.2651l.9508.3036c11.3971,3.6632,23.5693-2.2091,27.0567-13.051L76.5,229.3487c3.4835-10.8419-2.9881-22.71-14.3812-26.3656l-.9508-.3076c-11.3971-3.6632-23.5693,2.2091-27.0567,13.051l-12.8992,42.165C17.7289,268.7333,24.2,280.6018,35.5975,284.2651Z"/><path class="cls-2" d="M119.2844,290.7167c2.6765-6.28,4.63-13.51,6.6713-19.926,4.5061-14.1615,8.457-28.5627,12.7833-42.7722q2.7324-8.94,5.4329-17.8927c3.9948-12.3838-2.0893-25.5027-13.4864-29.162l-.9587-.3076c-11.3652-3.6552-23.9008,3.4315-27.9156,15.7475l-24.3083,81.05a32.117,32.117,0,0,1-20.4413,20.9567,18.4844,18.4844,0,0,1-2.1891.6112,26.9489,26.9489,0,0,1-14.4731-.5393l-.9548-.3076c-.755-.2437-1.4781-.5393-2.2011-.8429,5.0334,7.2346,15.16,14.9565,27.0128,18.8474,13.1828,4.3224,28.335,2.3969,39.6922-5.5608C111.3508,305.4375,115.8928,298.6783,119.2844,290.7167Z"/></g></g><text class="cls-3" transform="translate(155.7839 300.6357)">IKAT</text></svg>