<svg id="Layer_1" data-name="Layer 1" xmlns="http://www.w3.org/2000/svg" viewBox="0 0 128 128" class="text-red">
    <defs>
        <style>
            .cls-1{fill:#1f65a6;}.cls-2{fill:#328ff8;}.cls-3{font-size:37.3779px;fill:#2b2d46;font-family:AvenirNextRoundedPro-Bold, Avenir Next Rounded Pro;font-weight:700;}
        </style>
    </defs>
    <title>ikat128</title>
    <g id="Layer_2" data-name="Layer 2">
        <g id="Layer_1-2" data-name="Layer 1-2" class="fill-current">
            <path class="cls-1" d="M7.8093,71.8923l.24.0767a5.3869,5.3869,0,0,0,6.8372-3.298l3.2586-10.656a5.3847,5.3847,0,0,0-3.6341-6.6626l-.24-.0777a5.3869,5.3869,0,0,0-6.8372,3.298l-3.26,10.655A5.3874,5.3874,0,0,0,7.8093,71.8923Z"/>
            <path class="cls-2" d="M28.9569,73.5226c.6763-1.5869,1.17-3.4141,1.6858-5.0353,1.1387-3.5786,2.1371-7.2178,3.23-10.8085q.69-2.2592,1.3729-4.5215a5.7628,5.7628,0,0,0-3.408-7.3692l-.2423-.0777A5.7645,5.7645,0,0,0,24.5414,49.69L18.3988,70.1712a8.1159,8.1159,0,0,1-5.1655,5.2957,4.671,4.671,0,0,1-.5532.1544,6.81,6.81,0,0,1-3.6573-.1363l-.2413-.0777c-.1908-.0616-.3735-.1363-.5562-.213a13.977,13.977,0,0,0,6.8261,4.7627,11.4876,11.4876,0,0,0,10.03-1.4052A11.14,11.14,0,0,0,28.9569,73.5226Z"/>
        </g>
    </g>
    <text class="cls-3" transform="translate(38.1813 76.0264)">IKAT</text>
</svg>
