<svg id="Layer_1" data-name="Layer 1" xmlns="http://www.w3.org/2000/svg" viewBox="0 0 256 256"><defs><style>.cls-1{fill:#1f65a6;}.cls-2{fill:#328ff8;}.cls-3{font-size:75.7637px;fill:#2b2d46;font-family:AvenirNextRoundedPro-Bold, Avenir Next Rounded Pro;font-weight:700;}</style></defs><title>ikat256</title><g id="Layer_2" data-name="Layer 2"><g id="Layer_1-2" data-name="Layer 1-2"><path class="cls-1" d="M15.1206,142.9662l.487.1555c5.8377,1.8763,12.0724-1.1315,13.8587-6.6848l6.6051-21.5994c1.7843-5.5533-1.5305-11.6325-7.3662-13.5048l-.487-.1576c-5.8377-1.8763-12.0724,1.1315-13.8587,6.6849L7.7523,129.4573C5.968,135.0107,9.2828,141.09,15.1206,142.9662Z"/><path class="cls-2" d="M57.9859,146.2707c1.3709-3.2166,2.3715-6.92,3.4171-10.2063,2.3081-7.2537,4.3318-14.63,6.5478-21.9084q1.4-4.5793,2.7828-9.1648c2.0462-6.3431-1.07-13.0628-6.9079-14.9371l-.4911-.1576c-5.8214-1.8722-12.2423,1.7577-14.2987,8.066l-12.451,41.5148a16.4507,16.4507,0,0,1-10.47,10.7342,9.4679,9.4679,0,0,1-1.1213.3131,13.8035,13.8035,0,0,1-7.4133-.2762l-.489-.1576c-.3867-.1248-.7571-.2762-1.1274-.4317,2.5782,3.7056,7.7652,7.6609,13.8362,9.6538a23.285,23.285,0,0,0,20.3308-2.8483A22.5807,22.5807,0,0,0,57.9859,146.2707Z"/></g></g><text class="cls-3" transform="translate(76.6799 151.3516)">IKAT</text></svg>