<svg xmlns="http://www.w3.org/2000/svg" width="100%" height="100%" viewBox="0 0 24 24"><path fill="currentColor" fill-rule="evenodd" d="M12 1c6.075 0 11 4.925 11 11s-4.925 11-11 11S1 18.075 1 12 5.925 1 12 1zm0 2a9 9 0 1 0 0 18 9 9 0 0 0 0-18zm2.01 13c.507 0 .926.383.983.883L15 17a1 1 0 0 1-.99 1H9.99A.993.993 0 0 1 9 17a1 1 0 0 1 .99-1h4.02zm1.995-4c.51 0 .93.383.988.883L17 13c0 .552-.456 1-.995 1h-8.01A.995.995 0 0 1 7 13c0-.552.456-1 .995-1h8.01zm1.988-4c.517 0 .942.383 1 .883L19 9c0 .552-.45 1-1.007 1H6.007A1.001 1.001 0 0 1 5 9c0-.552.45-1 1.007-1h11.986z"/></svg>